<?xml version="1.0" standalone="no"?>
<!DOCTYPE svg PUBLIC "-//W3C//DTD SVG 20010904//EN"
 "http://www.w3.org/TR/2001/REC-SVG-20010904/DTD/svg10.dtd">
<svg version="1.0" xmlns="http://www.w3.org/2000/svg"
 width="449.000000pt" height="112.000000pt" viewBox="0 0 449.000000 112.000000"
 preserveAspectRatio="xMidYMid meet">

<g transform="translate(0.000000,112.000000) scale(0.100000,-0.100000)"
fill="#000000" stroke="none">
<path d="M340 1100 c0 -8 -2 -100 -3 -204 l-2 -190 -149 -68 c-82 -37 -151
-68 -153 -68 -2 0 -1 6 2 13 4 6 -1 3 -9 -7 -9 -11 -16 -22 -16 -25 0 -5 307
-189 331 -199 5 -2 84 42 178 97 l170 101 -157 259 c-179 295 -191 312 -192
291z"/>
<path d="M260 970 c-6 -11 -8 -20 -6 -20 3 0 10 9 16 20 6 11 8 20 6 20 -3 0
-10 -9 -16 -20z"/>
<path d="M1790 610 c0 -193 4 -300 10 -300 6 0 10 38 10 93 0 150 27 203 108
214 34 4 44 1 73 -25 l34 -30 5 -121 c3 -68 9 -122 15 -124 14 -3 18 175 5
225 -17 59 -61 98 -114 98 -41 0 -106 -30 -106 -50 0 -5 -4 -10 -10 -10 -6 0
-10 62 -10 165 0 103 -4 165 -10 165 -6 0 -10 -107 -10 -300z"/>
<path d="M1510 701 l0 -60 -42 -3 c-24 -2 -43 -7 -43 -13 0 -5 19 -11 43 -13
l42 -3 0 -150 c0 -93 4 -149 10 -149 6 0 10 56 10 149 l0 150 43 3 c23 2 42 8
42 13 0 6 -19 11 -42 13 l-43 3 0 60 c0 33 -4 59 -10 59 -6 0 -10 -26 -10 -59z"/>
<path d="M60 640 c-6 -11 -8 -20 -6 -20 3 0 10 9 16 20 6 11 8 20 6 20 -3 0
-10 -9 -16 -20z"/>
<path d="M1031 618 c-95 -65 -96 -221 -1 -285 59 -40 155 -28 204 26 29 32 11
37 -24 7 -76 -64 -178 -40 -216 51 -8 18 -14 35 -14 38 0 3 63 5 140 5 119 0
142 2 147 16 10 27 -15 88 -52 124 -30 29 -43 34 -92 38 -48 3 -64 0 -92 -20z
m140 -13 c32 -17 69 -69 69 -97 0 -16 -13 -18 -131 -18 -115 0 -130 2 -125 16
3 9 6 19 6 24 0 15 53 72 74 80 33 14 74 11 107 -5z"/>
<path d="M2311 618 c-95 -65 -96 -221 -1 -285 59 -40 155 -28 204 26 29 32 11
37 -24 7 -76 -64 -178 -40 -216 51 -8 18 -14 35 -14 38 0 3 63 5 140 5 119 0
142 2 147 16 10 27 -15 88 -52 124 -30 29 -43 34 -92 38 -48 3 -64 0 -92 -20z
m140 -13 c32 -17 69 -69 69 -97 0 -16 -13 -18 -131 -18 -115 0 -130 2 -125 16
3 9 6 19 6 24 0 15 53 72 74 80 33 14 74 11 107 -5z"/>
<path d="M2740 475 c0 -108 3 -164 10 -160 6 3 10 48 10 98 0 117 16 153 83
186 29 14 45 27 39 33 -12 12 -61 -8 -94 -40 l-28 -26 0 32 c0 17 -4 34 -10
37 -7 4 -10 -52 -10 -160z"/>
<path d="M3106 620 c-101 -66 -100 -229 2 -292 27 -16 45 -19 93 -16 51 4 65
9 91 36 35 35 31 57 -5 25 -83 -76 -199 -44 -232 65 l-6 22 145 0 146 0 0 33
c0 40 -37 102 -76 127 -19 13 -46 20 -79 20 -33 0 -60 -7 -79 -20z m134 -15
c31 -16 64 -58 73 -92 5 -23 5 -23 -130 -23 l-134 0 6 23 c12 37 35 67 68 87
38 24 78 25 117 5z"/>
<path d="M3524 626 c-3 -8 -4 -64 -2 -125 3 -124 16 -152 80 -184 45 -22 90
-14 128 24 l29 29 3 -27 c2 -16 8 -27 13 -25 6 1 10 62 10 157 0 184 -17 213
-25 43 -3 -62 -11 -123 -18 -135 -34 -60 -114 -72 -163 -24 -29 29 -29 30 -29
150 0 110 -10 157 -26 117z"/>
<path d="M3980 475 c0 -103 4 -165 10 -165 6 0 10 40 10 100 0 117 17 173 61
195 36 19 79 19 107 -1 42 -29 52 -65 52 -184 0 -60 4 -110 9 -110 5 0 11 46
13 103 4 116 23 169 69 192 42 22 75 18 111 -14 l33 -29 3 -119 c5 -160 22
-172 22 -15 0 137 -10 171 -60 197 -58 30 -142 8 -170 -46 l-12 -21 -18 28
c-25 37 -57 53 -107 54 -33 0 -50 -7 -78 -31 l-35 -31 0 31 c0 17 -4 31 -10
31 -6 0 -10 -62 -10 -165z"/>
<path d="M503 373 l-163 -96 0 -136 c0 -132 0 -135 19 -116 30 32 321 445 313
444 -4 0 -80 -43 -169 -96z"/>
<path d="M40 440 c6 -11 15 -18 21 -15 13 9 11 13 -12 25 -19 11 -20 10 -9
-10z"/>
<path d="M60 406 c0 -2 8 -10 18 -17 15 -13 16 -12 3 4 -13 16 -21 21 -21 13z"/>
<path d="M150 386 c0 -3 9 -10 20 -16 11 -6 20 -8 20 -6 0 3 -9 10 -20 16 -11
6 -20 8 -20 6z"/>
<path d="M110 336 c0 -2 8 -10 18 -17 15 -13 16 -12 3 4 -13 16 -21 21 -21 13z"/>
<path d="M270 316 c0 -3 9 -10 20 -16 11 -6 20 -8 20 -6 0 3 -9 10 -20 16 -11
6 -20 8 -20 6z"/>
<path d="M160 266 c0 -2 8 -10 18 -17 15 -13 16 -12 3 4 -13 16 -21 21 -21 13z"/>
<path d="M210 196 c0 -2 8 -10 18 -17 15 -13 16 -12 3 4 -13 16 -21 21 -21 13z"/>
<path d="M260 126 c0 -2 8 -10 18 -17 15 -13 16 -12 3 4 -13 16 -21 21 -21 13z"/>
</g>
</svg>
