<?xml version="1.0" standalone="no"?>
<!DOCTYPE svg PUBLIC "-//W3C//DTD SVG 20010904//EN"
 "http://www.w3.org/TR/2001/REC-SVG-20010904/DTD/svg10.dtd">
<svg version="1.0" xmlns="http://www.w3.org/2000/svg"
 width="300.000000pt" height="79.000000pt" viewBox="0 0 300.000000 79.000000"
 preserveAspectRatio="xMidYMid meet">

<g transform="translate(0.000000,79.000000) scale(0.100000,-0.100000)"
fill="#000000" stroke="none">
<path d="M54 780 c-53 -21 -54 -29 -54 -387 l0 -332 24 -27 c27 -32 82 -38
112 -14 9 8 57 75 106 148 69 103 85 134 73 138 -10 4 -45 -19 -99 -65 -46
-39 -86 -71 -90 -71 -3 0 -6 99 -6 220 0 127 4 220 9 220 5 0 123 -135 261
-299 144 -171 261 -301 273 -305 41 -11 66 -6 96 20 l31 26 0 338 0 339 -24
27 c-27 32 -82 38 -111 14 -23 -19 -176 -248 -183 -272 -9 -34 22 -18 103 52
44 38 83 70 88 70 4 0 7 -101 7 -225 0 -124 -2 -225 -5 -225 -2 0 -119 137
-260 304 -272 323 -284 333 -351 306z"/>
<path d="M1100 396 l0 -236 40 0 41 0 -3 175 c-2 96 -1 175 2 175 3 -1 50 -72
105 -158 55 -86 108 -165 118 -174 10 -11 32 -18 57 -18 l40 0 0 235 0 235
-42 0 -41 0 6 -177 c4 -126 3 -174 -5 -163 -5 8 -58 87 -117 175 l-106 160
-47 3 -48 3 0 -235z"/>
<path d="M1650 612 c0 -11 8 -26 18 -35 15 -14 42 -17 155 -17 l137 0 0 35 0
35 -155 0 c-144 0 -155 -1 -155 -18z"/>
<path d="M2172 416 c-108 -277 -103 -256 -55 -256 l38 0 72 188 c39 103 74
187 78 187 4 0 39 -84 78 -187 l72 -188 37 0 c24 0 38 5 37 13 0 6 -39 111
-87 232 l-87 220 -50 3 -50 3 -83 -215z"/>
<path d="M2630 612 c0 -38 30 -50 133 -54 94 -3 100 -4 123 -31 30 -35 30 -59
0 -94 -24 -27 -27 -28 -140 -31 l-116 -4 0 -119 0 -119 40 0 40 0 0 85 0 85
38 0 c35 -1 41 -6 97 -81 60 -80 79 -93 130 -87 l28 3 -67 85 -67 84 35 18
c55 28 76 63 76 125 0 119 -51 152 -232 153 -108 0 -118 -2 -118 -18z"/>
<path d="M1650 300 l0 -140 155 0 155 0 0 35 0 34 -117 3 -118 3 -3 63 -3 62
111 0 110 0 0 40 0 40 -145 0 -145 0 0 -140z"/>
</g>
</svg>
