<svg width="34" height="22" viewBox="0 0 34 22" fill="none" xmlns="http://www.w3.org/2000/svg">
<path d="M14.0765 10.0098C14.7613 9.66537 15.279 9.28168 15.6338 8.86708C16.265 8.12038 16.5764 7.13038 16.5764 5.90308C16.5764 4.70878 16.265 3.68773 15.6421 2.83168C14.6024 1.43743 12.8431 0.723723 10.3554 0.686523H0.5V20.8038H9.68915C10.7246 20.8038 11.6838 20.7151 12.5708 20.5336C13.4578 20.35 14.225 20.0137 14.8748 19.5228C15.4523 19.0959 15.935 18.5658 16.3186 17.9407C16.925 16.996 17.2283 15.9256 17.2283 14.7333C17.2283 13.5783 16.9622 12.5943 16.4341 11.7858C15.8999 10.9773 15.116 10.3852 14.0765 10.0098ZM4.56545 4.18077H9.0044C9.98 4.18077 10.7845 4.28593 11.4157 4.49428C12.1459 4.79743 12.511 5.41423 12.511 6.35473C12.511 7.19848 12.2324 7.78827 11.6818 8.12037C11.1269 8.45248 10.4071 8.61958 9.52415 8.61958H4.56545V4.18077ZM11.5849 16.959C11.0939 17.1961 10.4028 17.3137 9.518 17.3137H4.56545V11.9487H9.5861C10.4606 11.955 11.1413 12.0705 11.628 12.2871C12.4944 12.6789 12.9256 13.3968 12.9256 14.4466C12.9256 15.6843 12.4801 16.5175 11.5849 16.959Z" fill="white"/>
<path d="M30.3281 1.625H21.5886V4.1291H30.3281V1.625Z" fill="white"/>
<path d="M33.3646 11.5073C33.1831 10.3418 32.7829 9.3167 32.16 8.43185C31.4773 7.4294 30.6109 6.695 29.5569 6.2309C28.507 5.7647 27.3252 5.53175 26.0091 5.5337C23.8 5.5337 22.0054 6.22476 20.6173 7.59636C19.2333 8.97216 18.5403 10.9504 18.5403 13.5287C18.5403 16.2782 19.3054 18.2645 20.8443 19.4836C22.3768 20.7047 24.1465 21.3131 26.1556 21.3131C28.5874 21.3131 30.4789 20.5892 31.83 19.1453C32.6943 18.2336 33.1831 17.3363 33.2904 16.4557H29.2641C29.031 16.8908 28.7607 17.2312 28.4514 17.4787C27.8902 17.9324 27.1602 18.1594 26.265 18.1594C25.413 18.1594 24.691 17.9717 24.0888 17.5984C23.0946 17.0002 22.5748 15.9523 22.5088 14.461H33.4966C33.5131 13.1759 33.4719 12.1879 33.3646 11.5073ZM22.6078 11.893C22.7521 10.9256 23.1028 10.1582 23.6598 9.59105C24.2167 9.02585 25.0047 8.74116 26.0133 8.73921C26.9436 8.73921 27.7212 9.00515 28.3543 9.53945C28.9794 10.0778 29.332 10.8596 29.4043 11.893H22.6078Z" fill="white"/>
</svg>
