<svg width="34" height="20" viewBox="0 0 34 20" fill="none" xmlns="http://www.w3.org/2000/svg">
<path d="M28.3438 9.125C27.9767 9.125 27.6164 9.1649 27.2685 9.2378C26.8052 4.55045 22.8383 0.875 18.0312 0.875C17.462 0.875 17 1.337 17 1.90625V18.4062C17 18.9755 17.462 19.4375 18.0312 19.4375H28.3438C31.1887 19.4375 33.5 17.1261 33.5 14.2812C33.5 11.4392 31.1887 9.125 28.3438 9.125Z" fill="white"/>
<path d="M12.875 3.96875V18.4062C12.875 18.9755 13.337 19.4375 13.9062 19.4375C14.4755 19.4375 14.9375 18.9755 14.9375 18.4062V3.96875C14.9375 3.3995 14.4755 2.9375 13.9062 2.9375C13.337 2.9375 12.875 3.3995 12.875 3.96875Z" fill="white"/>
<path d="M8.75 8.09375V18.4062C8.75 18.9755 9.212 19.4375 9.78125 19.4375C10.3505 19.4375 10.8125 18.9755 10.8125 18.4062V8.09375C10.8125 7.5245 10.3505 7.0625 9.78125 7.0625C9.212 7.0625 8.75 7.5245 8.75 8.09375Z" fill="white"/>
<path d="M4.625 18.4062C4.625 18.9755 5.087 19.4375 5.65625 19.4375C6.2255 19.4375 6.6875 18.9755 6.6875 18.4062V8.09375C6.6875 7.5245 6.2255 7.0625 5.65625 7.0625C5.087 7.0625 4.625 7.5245 4.625 8.09375V18.4062Z" fill="white"/>
<path d="M1.53125 19.4375C2.1005 19.4375 2.5625 18.9755 2.5625 18.4062V12.2188C2.5625 11.6495 2.1005 11.1875 1.53125 11.1875C0.962 11.1875 0.5 11.6495 0.5 12.2188V18.4062C0.5 18.9755 0.962 19.4375 1.53125 19.4375Z" fill="white"/>
</svg>
