<svg id="Composant_2_1" data-name="Composant 2 – 1" xmlns="http://www.w3.org/2000/svg" width="28.944" height="28.949" viewBox="0 0 28.944 28.949">
  <path id="Tracé_1003" data-name="Tracé 1003" d="M508.7-161.193a10.59,10.59,0,0,0-.673-3.512,7.065,7.065,0,0,0-1.674-2.567,7.122,7.122,0,0,0-2.562-1.669,10.622,10.622,0,0,0-3.512-.673c-1.55-.073-2.042-.09-5.972-.09s-4.422.017-5.966.085a10.534,10.534,0,0,0-3.512.673,7.056,7.056,0,0,0-2.568,1.674,7.129,7.129,0,0,0-1.668,2.561,10.623,10.623,0,0,0-.673,3.512c-.074,1.55-.091,2.042-.091,5.972s.017,4.423.085,5.967a10.6,10.6,0,0,0,.673,3.512,7.152,7.152,0,0,0,1.674,2.567,7.12,7.12,0,0,0,2.562,1.668,10.571,10.571,0,0,0,3.512.673c1.544.068,2.036.085,5.966.085s4.423-.017,5.967-.085a10.539,10.539,0,0,0,3.512-.673,7.408,7.408,0,0,0,4.236-4.235,10.6,10.6,0,0,0,.672-3.512c.068-1.544.085-2.036.085-5.967S508.769-159.649,508.7-161.193Zm-2.607,11.82a7.952,7.952,0,0,1-.5,2.686,4.8,4.8,0,0,1-2.748,2.748,7.958,7.958,0,0,1-2.687.5c-1.527.068-1.985.085-5.847.085s-4.327-.017-5.848-.085a7.921,7.921,0,0,1-2.686-.5,4.452,4.452,0,0,1-1.663-1.08,4.5,4.5,0,0,1-1.08-1.662,7.989,7.989,0,0,1-.5-2.687c-.068-1.527-.084-1.985-.084-5.847s.016-4.327.084-5.848a7.946,7.946,0,0,1,.5-2.686,4.395,4.395,0,0,1,1.086-1.663,4.5,4.5,0,0,1,1.662-1.08,7.989,7.989,0,0,1,2.687-.5c1.527-.067,1.985-.084,5.847-.084s4.327.017,5.848.084a7.946,7.946,0,0,1,2.686.5,4.452,4.452,0,0,1,1.663,1.08,4.5,4.5,0,0,1,1.08,1.663,7.981,7.981,0,0,1,.5,2.686c.068,1.527.085,1.985.085,5.848S506.162-150.9,506.094-149.373Z" transform="translate(-479.83 169.704)" fill="#fff"/>
  <path id="Tracé_1004" data-name="Tracé 1004" d="M494.308-162.663a7.438,7.438,0,0,0-7.437,7.436,7.439,7.439,0,0,0,7.437,7.437,7.439,7.439,0,0,0,7.437-7.437A7.438,7.438,0,0,0,494.308-162.663Zm0,12.26a4.824,4.824,0,0,1-4.824-4.824,4.825,4.825,0,0,1,4.824-4.824,4.825,4.825,0,0,1,4.824,4.824A4.824,4.824,0,0,1,494.308-150.4Z" transform="translate(-479.83 169.704)" fill="#fff"/>
  <path id="Tracé_1005" data-name="Tracé 1005" d="M503.775-162.957a1.736,1.736,0,0,1-1.736,1.736,1.736,1.736,0,0,1-1.736-1.736,1.737,1.737,0,0,1,1.736-1.737A1.737,1.737,0,0,1,503.775-162.957Z" transform="translate(-479.83 169.704)" fill="#fff"/>
</svg>
