<svg width="28" height="34" viewBox="0 0 28 34" fill="none" xmlns="http://www.w3.org/2000/svg">
<path d="M14.4482 0.5C5.40215 0.50135 0.59375 6.29705 0.59375 12.6165C0.59375 15.5466 2.23145 19.2027 4.85345 20.3618C5.6015 20.6987 5.5025 20.2875 6.146 17.8263C6.19685 17.6214 6.17075 17.4441 6.00575 17.253C2.25755 12.9176 5.2742 4.0049 13.9133 4.0049C26.4163 4.0049 24.0802 21.3051 16.0886 21.3051C14.0288 21.3051 12.4944 19.6881 12.9797 17.6874C13.5683 15.3045 14.7205 12.743 14.7205 11.0256C14.7205 6.6971 8.2718 7.33925 8.2718 13.0743C8.2718 14.8467 8.8988 16.043 8.8988 16.043C8.8988 16.043 6.82385 24.425 6.4388 25.9911C5.78705 28.6421 6.52685 32.9334 6.5915 33.3033C6.6314 33.5069 6.85955 33.5715 6.9875 33.4037C7.1924 33.1356 9.7004 29.5578 10.403 26.9715C10.6587 26.0297 11.7079 22.2071 11.7079 22.2071C12.3995 23.4555 14.3933 24.5006 16.5176 24.5006C22.8371 24.5006 27.4049 18.9456 27.4049 12.0527C27.3828 5.44445 21.7275 0.5 14.4482 0.5Z" fill="white"/>
</svg>
