<svg width="34" height="34" viewBox="0 0 34 34" fill="none" xmlns="http://www.w3.org/2000/svg">
<path d="M32.5513 20.502C32.7905 19.4276 32.9143 18.3138 32.9143 17.1712C32.9143 8.6015 25.8687 1.6529 17.1754 1.6529C16.2596 1.6529 15.3604 1.73135 14.4838 1.87985C13.0772 1.00745 11.4127 0.5 9.6287 0.5C4.58585 0.5 0.5 4.5281 0.5 9.50075C0.5 11.1611 0.957801 12.7142 1.754 14.0527C1.54565 15.0592 1.43435 16.1028 1.43435 17.1712C1.43435 25.7429 8.4818 32.6915 17.1732 32.6915C18.159 32.6915 19.1223 32.6007 20.0567 32.4317C21.3437 33.1123 22.812 33.5 24.3734 33.5C29.4142 33.5 33.5 29.4699 33.5 24.5014C33.5 23.0638 33.1576 21.7086 32.5513 20.502ZM25.2479 24.5879C24.5198 25.6047 23.4453 26.4092 22.049 26.9785C20.6691 27.5456 19.0172 27.8344 17.132 27.8344C14.8715 27.8344 12.9761 27.4424 11.4951 26.6669C10.437 26.1039 9.56675 25.3428 8.90465 24.3982C8.2343 23.4494 7.89815 22.5068 7.89815 21.5952C7.89815 21.0281 8.1188 20.5352 8.5541 20.1329C8.98505 19.7308 9.53795 19.5306 10.1979 19.5306C10.7382 19.5306 11.2044 19.6895 11.5839 20.0051C11.9448 20.3083 12.2563 20.7578 12.5059 21.3334C12.7843 21.9644 13.0874 22.4966 13.4071 22.9112C13.7186 23.3174 14.162 23.6556 14.7291 23.9217C15.3005 24.1858 16.0698 24.3239 17.0144 24.3239C18.3158 24.3239 19.3842 24.0497 20.1845 23.5093C20.9703 22.9834 21.3498 22.3481 21.3498 21.5726C21.3498 20.9621 21.1497 20.4794 20.7434 20.102C20.3144 19.706 19.7493 19.3987 19.0646 19.1863C18.3489 18.9677 17.3774 18.7285 16.1771 18.481C14.5415 18.1364 13.1534 17.7281 12.0521 17.264C10.9238 16.7897 10.0123 16.1337 9.34805 15.3129C8.67155 14.4776 8.32925 13.4318 8.32925 12.2026C8.32925 11.0311 8.6882 9.97505 9.3977 9.0635C10.1009 8.1581 11.1281 7.4507 12.4542 6.9701C13.7598 6.4937 15.3128 6.25235 17.0721 6.25235C18.4767 6.25235 19.7122 6.41315 20.7455 6.73085C21.7829 7.0484 22.6574 7.4774 23.3442 8.0075C24.0373 8.54375 24.5528 9.1109 24.8745 9.7049C25.2005 10.3031 25.3676 10.8992 25.3676 11.4746C25.3676 12.0295 25.151 12.5346 24.722 12.9719C24.289 13.4153 23.7444 13.638 23.105 13.638C22.5234 13.638 22.0655 13.4959 21.7499 13.2215C21.455 12.9637 21.1476 12.5615 20.8094 11.9882C20.4176 11.254 19.941 10.6744 19.3965 10.264C18.8666 9.86585 17.9839 9.66785 16.7669 9.66785C15.6409 9.66785 14.7209 9.8906 14.0403 10.3319C13.3844 10.7547 13.0647 11.2415 13.0647 11.819C13.0647 12.1716 13.1678 12.4667 13.3804 12.7204C13.6031 12.9926 13.9185 13.2255 14.3187 13.4235C14.7312 13.6278 15.1582 13.7928 15.5852 13.9083C16.0225 14.0279 16.7546 14.2073 17.7631 14.4363C19.0377 14.7044 20.2071 15.0076 21.2426 15.3356C22.2924 15.6635 23.1957 16.0698 23.9382 16.5462C24.6911 17.0309 25.2871 17.6497 25.712 18.3922C26.1368 19.141 26.3515 20.0586 26.3515 21.1271C26.3493 22.4037 25.9781 23.5691 25.2479 24.5879Z" fill="white"/>
</svg>
