<svg width="34" height="32" viewBox="0 0 34 32" fill="none" xmlns="http://www.w3.org/2000/svg">
<path d="M1.1469 23.3531C5.5587 22.6271 7.5471 18.1079 7.6275 17.9161C7.63365 17.9038 7.63785 17.8914 7.6461 17.8791C7.87095 17.4211 7.9245 17.0437 7.80075 16.7569C7.5594 16.1919 6.6354 15.8989 6.0249 15.7051C5.84745 15.6493 5.6805 15.5958 5.5422 15.5421C4.93995 15.3049 4.51095 15.047 4.22625 14.7562C3.888 14.4076 3.822 14.0736 3.8262 13.857C3.8364 13.329 4.2408 12.8587 4.88625 12.6296C5.10285 12.541 5.35245 12.4936 5.60415 12.4936C5.7753 12.4936 6.03106 12.5162 6.27241 12.6296C6.78811 12.871 7.2501 13.003 7.6482 13.0216C7.8585 13.0113 8.007 12.966 8.1039 12.9226C8.0916 12.7164 8.07915 12.504 8.06475 12.2853L8.0586 12.1903C7.91625 9.95665 7.7409 7.1782 8.47935 5.5282C8.9847 4.39795 9.6633 3.4264 10.4987 2.63845C11.1978 1.97845 12.0105 1.4422 12.914 1.0462C14.4836 0.3532 15.948 0.25 16.6823 0.25H16.6844C16.7133 0.25 16.74 0.25 16.7648 0.25C16.9691 0.2521 17.3012 0.25615 17.3321 0.25615C18.0642 0.25615 19.5308 0.35935 21.1046 1.05235C22.0059 1.44835 22.8144 1.98265 23.5116 2.64265C24.3428 3.43045 25.0194 4.3999 25.5227 5.5261C26.261 7.17415 26.0858 9.95245 25.9455 12.1842V12.1884C25.931 12.4276 25.9145 12.6772 25.9001 12.9205C26.0073 12.9679 26.1827 13.0216 26.4405 13.0216C26.8571 13.0216 27.3521 12.8896 27.9111 12.6277C28.0761 12.5514 28.2638 12.5122 28.47 12.5122C28.8021 12.5122 29.1549 12.6091 29.4581 12.7885C29.8416 13.0133 30.0893 13.3289 30.1572 13.6816C30.2006 13.9126 30.1985 14.3726 29.687 14.8387C29.4044 15.0944 28.9919 15.3317 28.4577 15.5421C28.3175 15.5979 28.1504 15.6493 27.975 15.7051C27.3645 15.8989 26.4384 16.1919 26.1971 16.7569C26.0754 17.0437 26.129 17.4211 26.3538 17.8791C26.36 17.8914 26.3663 17.9038 26.3703 17.9161C26.4281 18.0481 26.9541 19.2342 28.0328 20.4862C28.6454 21.1978 29.3199 21.7938 30.0377 22.2559C30.9143 22.821 31.8609 23.1881 32.853 23.351C33.2429 23.4149 33.5214 23.7616 33.4986 24.1555C33.4925 24.2689 33.4656 24.3825 33.4182 24.4916V24.4938C33.2594 24.8629 32.8943 25.1744 32.3003 25.4488C31.5743 25.785 30.4893 26.0676 29.0724 26.2882C29.0001 26.4244 28.9259 26.7648 28.8743 26.9977C28.8207 27.2452 28.7651 27.5009 28.6845 27.7712C28.598 28.0641 28.3752 28.4148 27.7997 28.4148C27.5811 28.4148 27.3315 28.3653 27.0407 28.3096C26.6157 28.2271 26.0342 28.1135 25.3101 28.1135C24.908 28.1135 24.4913 28.1487 24.0726 28.2189C23.2641 28.3528 22.5669 28.8438 21.7604 29.413C20.5806 30.2464 19.2441 31.189 17.2022 31.189C17.1464 31.189 17.0907 31.1869 17.0351 31.1827C16.9691 31.1869 16.8845 31.189 16.7978 31.189C14.7558 31.189 13.4193 30.2464 12.2396 29.4151L12.2375 29.413C11.4309 28.8459 10.7339 28.3549 9.9252 28.2208C9.50655 28.1508 9.08985 28.1156 8.6877 28.1156C7.9947 28.1156 7.446 28.2043 6.95715 28.2993C6.6375 28.3612 6.39 28.3921 6.19815 28.3921H6.17955H6.16095C5.7402 28.3921 5.4309 28.1611 5.3133 27.7588C5.23485 27.4927 5.1792 27.2452 5.12355 26.9916C5.07615 26.773 4.9977 26.4223 4.92765 26.2861C3.5106 26.0634 2.42565 25.7829 1.69965 25.4467C1.1076 25.1723 0.742503 24.861 0.583803 24.4938C0.536253 24.3844 0.507454 24.271 0.501304 24.1534C0.478504 23.7635 0.757054 23.4149 1.1469 23.3531Z" fill="white"/>
</svg>
