<svg width="72" height="72" viewBox="0 0 72 72" fill="none" xmlns="http://www.w3.org/2000/svg">
<path d="M36 0C16.1176 0 0 16.1176 0 36C0 55.8824 16.1176 72 36 72C55.8824 72 72 55.8824 72 36C72 16.1176 55.8824 0 36 0ZM51.6676 52.2459C51.2098 53.0291 50.3861 53.4659 49.5399 53.466C49.1181 53.466 48.6907 53.3574 48.3001 53.1292C41.8308 49.3485 34.3574 48.7408 29.2257 48.897C23.5413 49.0699 19.3726 50.192 19.3312 50.2035C18.0208 50.5614 16.6668 49.7902 16.3073 48.4801C15.948 47.17 16.7165 45.8168 18.0261 45.456C18.2141 45.4043 22.6998 44.186 28.9377 43.9802C32.6121 43.859 36.1494 44.115 39.4499 44.7411C43.6304 45.5342 47.4437 46.9262 50.7843 48.8784C51.9584 49.5644 52.3536 51.0722 51.6676 52.2459ZM56.2444 42.7404C55.7023 43.6682 54.7265 44.1854 53.724 44.1855C53.2244 44.1855 52.7181 44.0571 52.2555 43.7866C44.5926 39.3082 35.7398 38.5889 29.6613 38.7737C22.928 38.9786 17.9901 40.3077 17.941 40.3212C16.3893 40.7447 14.785 39.8319 14.3592 38.28C13.9336 36.7279 14.8439 35.1252 16.3952 34.6977C16.6178 34.6365 21.9312 33.193 29.3202 32.9494C33.6729 32.806 37.8627 33.1092 41.7723 33.8508C46.7241 34.7902 51.241 36.4391 55.198 38.7516C56.5887 39.564 57.0571 41.3501 56.2444 42.7404ZM59.0578 34.0975C58.4449 34.0975 57.824 33.9399 57.2565 33.6082C39.0386 22.9614 15.4065 29.2909 15.17 29.3563C13.2653 29.881 11.2964 28.7625 10.7718 26.858C10.247 24.9536 11.3656 22.9844 13.2701 22.4597C13.543 22.3845 20.0606 20.6142 29.124 20.3153C34.4633 20.1396 39.6023 20.5113 44.3978 21.4209C50.4717 22.5732 56.0124 24.5955 60.866 27.4321C62.5715 28.4287 63.1461 30.6194 62.1493 32.3249C61.4844 33.4629 60.2874 34.0975 59.0578 34.0975Z" fill="#00D95F"/>
</svg>
