<svg width="43" height="45" viewBox="0 0 43 45" fill="none" xmlns="http://www.w3.org/2000/svg">
<mask id="mask0" mask-type="alpha" maskUnits="userSpaceOnUse" x="0" y="0" width="43" height="45">
<path d="M42.4775 11.2674C39.7449 11.2674 37.2239 10.4152 35.1993 8.9778C32.8775 7.3299 31.2092 4.9128 30.6201 2.12672C30.4742 1.43835 30.3956 0.72798 30.3881 0H22.5827V20.0771L22.5734 31.0742C22.5734 34.0143 20.5394 36.5071 17.72 37.3839C16.9017 37.6383 16.0181 37.7589 15.098 37.7113C13.9235 37.6506 12.8228 37.317 11.8661 36.7784C9.83041 35.6322 8.45011 33.5531 8.41276 31.1745C8.35381 27.4572 11.5463 24.4264 15.4926 24.4264C16.2716 24.4264 17.0196 24.5462 17.72 24.7636V19.2761V17.3034C16.9812 17.2004 16.2294 17.1467 15.4692 17.1467C11.1498 17.1467 7.11016 18.8368 4.22236 21.8815C2.03986 24.1827 0.730657 27.1183 0.528757 30.1966C0.264007 34.2405 1.83601 38.0847 4.88446 40.9209C5.33236 41.3372 5.80276 41.7237 6.29461 42.0801C8.90836 43.9735 12.1037 45 15.4692 45C16.2294 45 16.9812 44.9472 17.72 44.8441C20.864 44.4058 23.7647 43.0511 26.0538 40.9209C28.8666 38.3039 30.4209 34.8294 30.4377 31.1314L30.3975 14.7092C31.7394 15.6837 33.2066 16.49 34.7814 17.1159C37.2305 18.0885 39.8273 18.5816 42.4998 18.5807V13.2453V11.2656C42.5018 11.2674 42.4793 11.2674 42.4775 11.2674Z" fill="white"/>
</mask>
<g mask="url(#mask0)">
<path d="M42.4775 11.2674C39.7449 11.2674 37.2239 10.4152 35.1993 8.9778C32.8775 7.3299 31.2092 4.9128 30.6201 2.12672C30.4742 1.43835 30.3956 0.72798 30.3881 0H22.5827V20.0771L22.5734 31.0742C22.5734 34.0143 20.5394 36.5071 17.72 37.3839C16.9017 37.6383 16.0181 37.7589 15.098 37.7113C13.9235 37.6506 12.8228 37.317 11.8661 36.7784C9.83041 35.6322 8.45011 33.5531 8.41276 31.1745C8.35381 27.4572 11.5463 24.4264 15.4926 24.4264C16.2716 24.4264 17.0196 24.5462 17.72 24.7636V19.2761V17.3034C16.9812 17.2004 16.2294 17.1467 15.4692 17.1467C11.1498 17.1467 7.11016 18.8368 4.22236 21.8815C2.03986 24.1827 0.730657 27.1183 0.528757 30.1966C0.264007 34.2405 1.83601 38.0847 4.88446 40.9209C5.33236 41.3372 5.80276 41.7237 6.29461 42.0801C8.90836 43.9735 12.1037 45 15.4692 45C16.2294 45 16.9812 44.9472 17.72 44.8441C20.864 44.4058 23.7647 43.0511 26.0538 40.9209C28.8666 38.3039 30.4209 34.8294 30.4377 31.1314L30.3975 14.7092C31.7394 15.6837 33.2066 16.49 34.7814 17.1159C37.2305 18.0885 39.8273 18.5816 42.4998 18.5807V13.2453V11.2656C42.5018 11.2674 42.4793 11.2674 42.4775 11.2674Z" fill="white"/>
<path d="M35.1994 8.97762L49.9622 -11.8144L49.9577 -11.8176L35.1994 8.97762ZM30.6202 2.12654L55.5685 -3.14896L55.5661 -3.16003L30.6202 2.12654ZM30.3881 -0.000179291L55.8868 -0.262215L55.6274 -25.5002H30.3881V-0.000179291ZM22.5827 -0.000179291V-25.5002H-2.91727V-0.000179291H22.5827ZM22.5827 20.0769L48.0827 20.0986V20.0877V20.0769H22.5827ZM22.5734 31.074L-2.92661 31.0524L-2.92663 31.0632V31.074H22.5734ZM17.72 37.3837L25.2908 61.734L25.2922 61.7337L17.72 37.3837ZM15.098 37.7112L13.781 63.1773H13.7824L15.098 37.7112ZM11.8661 36.7782L24.3787 14.5591L24.376 14.5576L11.8661 36.7782ZM8.41283 31.1743L33.9097 30.7734L33.9095 30.7704L8.41283 31.1743ZM17.72 24.7635L10.16 49.117L43.22 59.3797V24.7635H17.72ZM17.72 17.3032H43.22V-4.88841L21.2411 -7.95256L17.72 17.3032ZM4.22243 21.8814L22.7236 39.4303L22.7249 39.4288L4.22243 21.8814ZM0.52883 30.1965L-24.9165 28.5268L-24.9168 28.5312L0.52883 30.1965ZM4.88453 40.9207L-12.4849 59.5902L-12.4767 59.5978L4.88453 40.9207ZM6.29468 42.0799L-8.67011 62.7271L-8.66536 62.7306L6.29468 42.0799ZM17.72 44.844L21.2411 70.0998L21.2416 70.0996L17.72 44.844ZM26.0539 40.9207L8.68433 22.2513L8.68238 22.2531L26.0539 40.9207ZM30.4378 31.1313L55.9375 31.2474L55.9379 31.1581L55.9376 31.0689L30.4378 31.1313ZM30.3976 14.709L45.3811 -5.92452L4.77473 -35.4117L4.89758 14.7715L30.3976 14.709ZM34.7815 17.1157L25.3633 40.8127L25.3688 40.815L34.7815 17.1157ZM42.4999 18.5805L42.5083 44.0805L67.9999 44.0721V18.5805H42.4999ZM42.4999 11.2654L59.9783 -7.30218L16.9999 -47.7593V11.2654H42.4999ZM42.4775 -14.2328C45.0901 -14.2328 47.7182 -13.4077 49.9622 -11.8144L20.4365 29.7697C26.7296 34.2379 34.4 36.7672 42.4775 36.7672V-14.2328ZM49.9577 -11.8176C52.4954 -10.0166 54.7415 -7.05921 55.5685 -3.14896L5.67173 7.40202C7.67693 16.8844 13.2596 24.6762 20.441 29.7729L49.9577 -11.8176ZM55.5661 -3.16003C55.7743 -2.17735 55.8772 -1.20409 55.8868 -0.262215L4.88948 0.26186C4.91423 2.6597 5.17418 5.05377 5.67413 7.41312L55.5661 -3.16003ZM30.3881 -25.5002H22.5827V25.4998H30.3881V-25.5002ZM-2.91727 -0.000179291V20.0769H48.0827V-0.000179291H-2.91727ZM-2.91727 20.0553L-2.92661 31.0524L48.0734 31.0957L48.0827 20.0986L-2.91727 20.0553ZM-2.92663 31.074C-2.92663 21.6369 3.50768 15.0988 10.148 13.0339L25.2922 61.7337C37.5712 57.9151 48.0734 46.3914 48.0734 31.074H-2.92663ZM10.1494 13.0335C12.131 12.4174 14.2534 12.1336 16.4135 12.2452L13.7824 63.1773C17.7829 63.384 21.6727 62.859 25.2908 61.734L10.1494 13.0335ZM16.4149 12.2452C19.2484 12.3918 21.9707 13.203 24.3787 14.5591L-0.646271 58.9972C3.67493 61.4307 8.59853 62.9092 13.781 63.1773L16.4149 12.2452ZM24.376 14.5576C29.3786 17.374 33.7895 23.1403 33.9097 30.7734L-17.0841 31.5754C-16.8892 43.9654 -9.71779 53.8902 -0.64357 58.9987L24.376 14.5576ZM33.9095 30.7704C34.1009 42.8434 24.1861 49.9263 15.4927 49.9263V-1.07372C-1.09333 -1.07372 -17.3932 12.0706 -17.084 31.5784L33.9095 30.7704ZM15.4927 49.9263C13.6451 49.9263 11.8466 49.6405 10.16 49.117L25.28 0.409843C22.1927 -0.548567 18.898 -1.07372 15.4927 -1.07372V49.9263ZM43.22 24.7635V19.2759H-7.77992V24.7635H43.22ZM43.22 19.2759V17.3032H-7.77992V19.2759H43.22ZM21.2411 -7.95256C19.3592 -8.21493 17.4308 -8.35351 15.4693 -8.35351V42.6465C15.0281 42.6465 14.6035 42.6153 14.1991 42.5589L21.2411 -7.95256ZM15.4693 -8.35351C4.45328 -8.35351 -6.37404 -4.00214 -14.2799 4.33407L22.7249 39.4288C20.5943 41.6754 17.8465 42.6465 15.4693 42.6465V-8.35351ZM-14.2786 4.33257C-20.4042 10.7907 -24.3102 19.2867 -24.9165 28.5268L25.9741 31.8661C25.7717 34.9497 24.484 37.5742 22.7236 39.4303L-14.2786 4.33257ZM-24.9168 28.5312C-25.7023 40.5345 -20.9115 51.7504 -12.4849 59.5902L22.2541 22.2511C24.5836 24.4185 26.2306 27.9462 25.9744 31.8616L-24.9168 28.5312ZM-12.4767 59.5978C-11.2696 60.7198 -9.99887 61.764 -8.67011 62.7271L21.2596 21.4329C21.6046 21.6829 21.9346 21.9543 22.2458 22.2435L-12.4767 59.5978ZM-8.66536 62.7306C-1.56664 67.8732 6.89828 70.4998 15.4693 70.4998V19.4998C17.3092 19.4998 19.3834 20.0737 21.2548 21.4294L-8.66536 62.7306ZM15.4693 70.4998C17.411 70.4998 19.3394 70.3648 21.2411 70.0998L14.1991 19.5883C14.6233 19.5291 15.0479 19.4998 15.4693 19.4998V70.4998ZM21.2416 70.0996C29.3983 68.9623 37.1809 65.3994 43.4254 59.5884L8.68238 22.2531C10.3486 20.7025 12.3296 19.8489 14.1985 19.5883L21.2416 70.0996ZM43.4236 59.59C51.1748 52.3783 55.8872 42.2781 55.9375 31.2474L4.93808 31.0152C4.95458 27.3804 6.55868 24.229 8.68433 22.2513L43.4236 59.59ZM55.9376 31.0689L55.8974 14.6466L4.89758 14.7715L4.93778 31.1937L55.9376 31.0689ZM15.4141 35.3427C18.5042 37.5865 21.8455 39.4146 25.3633 40.8127L44.1995 -6.58132C44.5679 -6.43494 44.9747 -6.21958 45.3811 -5.92452L15.4141 35.3427ZM25.3688 40.815C30.8581 42.9951 36.6553 44.0824 42.5083 44.0805L42.4915 -6.91956C42.9994 -6.91972 43.6028 -6.81831 44.194 -6.58357L25.3688 40.815ZM67.9999 18.5805V13.2451H16.9999V18.5805H67.9999ZM67.9999 13.2451V11.2654H16.9999V13.2451H67.9999ZM25.0216 29.833C22.9969 27.9273 19.2748 23.7934 17.6974 17.1886C15.8896 9.61827 17.7763 2.57534 21.0418 -2.51095C23.8361 -6.86332 27.2399 -9.25836 28.9016 -10.3058C30.767 -11.4817 32.4031 -12.1719 33.3496 -12.5358C36.4234 -13.7174 39.0815 -14.0038 39.1505 -14.0129C40.3978 -14.1781 41.3972 -14.2098 41.4902 -14.2134C42.0307 -14.2346 42.4643 -14.2328 42.4775 -14.2328V36.7672C42.4924 36.7672 42.9383 36.769 43.49 36.7474C43.5886 36.7435 44.5934 36.7114 45.8444 36.5458C45.9154 36.5365 48.5749 36.2499 51.6496 35.0679C52.5964 34.704 54.2326 34.0135 56.0981 32.8375C57.7598 31.7901 61.1638 29.3949 63.9581 25.0425C67.2238 19.9561 69.1105 12.913 67.3027 5.34267C65.7253 -1.26238 62.003 -5.39622 59.9783 -7.30218L25.0216 29.833Z" fill="white"/>
</g>
</svg>
