<svg xmlns="http://www.w3.org/2000/svg" width="35.633" height="28.952" viewBox="0 0 35.633 28.952">
  <path id="Tracé_1006" data-name="Tracé 1006" d="M863.21-334.053A15.2,15.2,0,0,1,859-332.9a7.259,7.259,0,0,0,3.214-4.038,14.6,14.6,0,0,1-4.632,1.769,7.32,7.32,0,0,0-5.336-2.312,7.3,7.3,0,0,0-7.3,7.307,7.477,7.477,0,0,0,.17,1.666,20.677,20.677,0,0,1-15.058-7.641,7.355,7.355,0,0,0-1,3.692,7.315,7.315,0,0,0,3.245,6.071,7.206,7.206,0,0,1-3.3-.9v.081a7.337,7.337,0,0,0,5.852,7.177,7.266,7.266,0,0,1-1.915.241,6.454,6.454,0,0,1-1.383-.125,7.376,7.376,0,0,0,6.826,5.089,14.678,14.678,0,0,1-9.057,3.116,13.79,13.79,0,0,1-1.749-.1,20.573,20.573,0,0,0,11.207,3.278c13.443,0,20.792-11.136,20.792-20.788,0-.323-.011-.634-.027-.944A14.564,14.564,0,0,0,863.21-334.053Z" transform="translate(-827.577 337.48)" fill="#fff"/>
</svg>
