<svg width="36" height="32" viewBox="0 0 36 32" fill="none" xmlns="http://www.w3.org/2000/svg">
<path d="M30.7455 0.257631C25.7535 0.0761308 22.3815 2.93813 20.6025 8.79863C21.5175 8.38913 22.407 8.20613 23.268 8.20613C25.0965 8.20613 25.905 9.25163 25.689 11.3291C25.581 12.5876 24.777 14.4176 23.271 16.8251C21.7575 19.2326 20.6265 20.4386 19.8735 20.4386C17.5905 20.4386 16.218 9.51263 15.753 6.52913C15.1065 2.38163 13.383 0.442131 10.5825 0.713631C8.0115 0.958131 3.525 5.58713 0 8.72513L1.6935 10.9331C3.306 9.79013 4.2465 9.21713 4.515 9.21713C7.3215 9.21713 8.6805 18.7676 10.86 25.8701C12.3225 29.7896 14.076 31.7501 16.1895 31.7501C19.5855 31.7501 23.7225 28.5341 28.6245 22.0991C33.357 15.9386 35.808 11.0831 35.9655 7.54163L35.985 7.52663C36.186 2.77913 34.4535 0.349131 30.7455 0.257631Z" fill="white"/>
</svg>
