<svg width="32" height="32" viewBox="0 0 32 32" fill="none" xmlns="http://www.w3.org/2000/svg">
<path fill-rule="evenodd" clip-rule="evenodd" d="M26.9436 5.01109C24.0492 2.11324 20.1999 0.516787 16.0992 0.515137C7.64906 0.515137 0.772015 7.39204 0.768565 15.8442C0.767515 18.5462 1.47326 21.1838 2.81501 23.5086L0.640015 31.4526L8.76701 29.3207C11.0062 30.5423 13.5273 31.1859 16.0929 31.1867H16.0993C24.5484 31.1867 31.4263 24.3092 31.4295 15.8565C31.4311 11.7602 29.8381 7.90864 26.9436 5.01109ZM16.0992 28.5977H16.0939C13.8075 28.5968 11.5653 27.9822 9.60852 26.8215L9.14352 26.5454L4.32086 27.8105L5.60802 23.1084L5.30502 22.6263C4.02942 20.5976 3.35591 18.2528 3.35711 15.8453C3.35966 8.81989 9.07586 3.10429 16.1043 3.10429C19.5076 3.10534 22.707 4.43254 25.1127 6.84094C27.5184 9.24949 28.8424 12.4508 28.8412 15.8556C28.8382 22.8815 23.1225 28.5977 16.0992 28.5977ZM23.0884 19.0545C22.7055 18.8627 20.8221 17.9363 20.4709 17.8083C20.1201 17.6804 19.8643 17.6168 19.6093 18.0002C19.3537 18.3834 18.6198 19.2464 18.3963 19.5018C18.1726 19.7576 17.9494 19.7897 17.5663 19.5978C17.1832 19.4061 15.949 19.0014 14.4858 17.6964C13.3471 16.6808 12.5785 15.4263 12.3549 15.0431C12.1317 14.6594 12.3531 14.472 12.523 14.2613C12.9376 13.7463 13.3528 13.2065 13.4805 12.951C13.6083 12.6954 13.5444 12.4716 13.4484 12.2799C13.3528 12.0884 12.5868 10.2029 12.2677 9.43564C11.9565 8.68909 11.6409 8.78989 11.4057 8.77819C11.1825 8.76709 10.927 8.76469 10.6714 8.76469C10.4163 8.76469 10.0012 8.86054 9.64991 9.24424C9.29891 9.62764 8.30951 10.5543 8.30951 12.4397C8.30951 14.3252 9.68202 16.1466 9.87357 16.4022C10.065 16.658 12.5746 20.5271 16.4172 22.1861C17.3311 22.581 18.0445 22.8165 18.6009 22.9931C19.5186 23.2847 20.3535 23.2434 21.0136 23.1449C21.7497 23.0348 23.2797 22.2182 23.5992 21.3234C23.9184 20.4287 23.9184 19.6617 23.8224 19.5018C23.7268 19.3421 23.4714 19.2464 23.0884 19.0545Z" fill="white"/>
</svg>
