<svg xmlns="http://www.w3.org/2000/svg" xmlns:xlink="http://www.w3.org/1999/xlink" viewBox="0 0 317.78 149.49"><defs><style>.cls-1{fill:none;}.cls-2{clip-path:url(#clip-path);}.cls-3{fill:#1d1d1b;}.cls-4{fill:#010101;}</style><clipPath id="clip-path" transform="translate(0 0)"><rect class="cls-1" width="317.78" height="149.49"/></clipPath></defs><g id="Layer_2" data-name="Layer 2"><g id="Layer_1-2" data-name="Layer 1"><g class="cls-2"><path class="cls-3" d="M189.47,6.62a10.07,10.07,0,0,1,2.63,2.93,13.74,13.74,0,0,1,1.51,3.84,7.39,7.39,0,0,1-.3,4.34,1.31,1.31,0,0,1-.6.61h-.21a1.16,1.16,0,0,1-.81-.4,17.42,17.42,0,0,0-6.56-6.06q-4.56-2.64-13.44-5T146.53,4.8A305.52,305.52,0,0,0,108.64,8a351.56,351.56,0,0,0-96,35.37Q3.15,48.65,2.14,54.11a10.26,10.26,0,0,0,.51,5.76,21.86,21.86,0,0,0,2.42,5.05Q6.39,66.84,9,70.07l.41.41q3.22,4,16.16,12.32,12.33,8.08,17.18,12.74A508.45,508.45,0,0,1,82.17,46.43q.19-.2,2.22-2.43,5.86-6.47,9.8-10.6a125.79,125.79,0,0,1,11.11-10q7.19-5.85,12.63-7.68h.21a1.74,1.74,0,0,1,1.82,1c.53,1.22-.44,3.44-2.94,6.67s-7,8.36-13.63,15.36c-1.89,2-3.24,3.51-4,4.45a498.55,498.55,0,0,0-49.71,64.26A22.08,22.08,0,0,1,48.52,119a34.71,34.71,0,0,1-6.26,10.71,91.89,91.89,0,0,1-7.58,8,80.24,80.24,0,0,1-7.07,5.76,7.63,7.63,0,0,1-1.83,1.41q-6.66,4.46-8.28,4.65a.86.86,0,0,1-.61-.2,1.16,1.16,0,0,1-.4-.81,45.83,45.83,0,0,1,4-16.77,140.31,140.31,0,0,1,9.7-17.58Q35.29,106,41.75,97,37.1,92.51,24.58,84.42,11.44,75.73,8,71.69l-.4-.4C5.71,69,4.3,67.18,3.35,65.83A22.83,22.83,0,0,1,.73,60.27a11.08,11.08,0,0,1-.41-6.56q1.21-6.27,11.52-11.93a359,359,0,0,1,96.4-35.56Q121,3.6,134.51,1.77q26.87-3.65,44.25.2c4.71,1,8.29,2.5,10.71,4.65M47.61,110.49q-2.22,3.63-7.07,12.73T32.66,137q16-14,15.35-27.08a.86.86,0,0,1-.1.41.32.32,0,0,1-.3.2" transform="translate(0 0)"/><path class="cls-3" d="M121.13,80.83c11.08-6.64,19.51-15.85,23.68-19.34l.86.34c0,.09-23.94,25.22-31.19,25.22a2.34,2.34,0,0,1-1.1-.25,1.67,1.67,0,0,1-.52-1.37c0-3.83,6.14-13.55,11-20.7-.09-.34-.18-.6-.26-.85l-2,1.61c-4.26,3.5-11.07,8.7-13,9h-.51a4.32,4.32,0,0,1-4.34-4.69v-.17c0-3.83,4.09-13,10-14.66a9.19,9.19,0,0,1,2.47-.34,5.9,5.9,0,0,1,3.15.86l.08.08c2,1.28,3.33,4.09,4.09,6.39,1.71-1.28,3.33-2.55,4.78-3.66.93-1.28,1.53-2.13,1.53-2.13.94-1.45,2-2.05,2.9-2.05,1.53,0,2.64,1.62,2.64,3.67v.59c0,.09-12.1,16.7-14.23,22.41M120,60a5.08,5.08,0,0,0-3.75,1.88c-2.55,2.81-4.09,6-4.09,7.41,0,.34.09.51.26.6h.08c.77,0,5.71-3.75,10.48-7.5a4.22,4.22,0,0,0-2-2.3A3.07,3.07,0,0,0,120,60m5.37,2.39L124,63.53a5.35,5.35,0,0,0,.17.69c.42-.6.85-1.2,1.19-1.79" transform="translate(0 0)"/><path class="cls-3" d="M189.89,53.82a3.23,3.23,0,0,1,2.05.77,5.67,5.67,0,0,1,1.87,3.92,1.76,1.76,0,0,0-1-.34c-.68,0-6.56,7.92-6.56,8.69v.08c.51,0,6-3.41,9.71-5.88a36.86,36.86,0,0,1,2.64-3.23,2,2,0,0,1,1.45-.52,3.18,3.18,0,0,1,1.79.6,3.81,3.81,0,0,1,1.62,1.79c0,.09,0,.17-.09.17h-.08c-.51,0-5.2,6.14-5.2,7,0,.08,0,.08.09.08.76-.08,10.56-4.94,10.56-4.94h.94a82.31,82.31,0,0,0-11.33,6.56c-2.05,1.54-3.41,2.13-4.44,2.13a2.45,2.45,0,0,1-2.3-1.87c0-.09-.08-.17-.08-.34,0-1,1.28-3.07,2.64-5.12-2.73,1.79-6.65,4.26-9,5.71-2.22,1.37-3.75,2.13-4.86,2.13-.85,0-1.36-.51-1.7-1.45V69.5c0-2.73,9.71-14.91,9.71-14.91a2.1,2.1,0,0,1,1.62-.77" transform="translate(0 0)"/><path class="cls-3" d="M213.75,52.8c2.55,0,3.83,3.41,3.83,3.41A21.79,21.79,0,0,0,216,57.83c-.85.93-12.1,14.57-12.1,15.5,0,.09,0,.09.09.09,1.19-.43,17.3-11.5,17.3-11.5l1.1-.26s-19,16.53-24.36,16.53a1.36,1.36,0,0,1-1-.34,1.39,1.39,0,0,1-.34-1c0-5.29,15.42-23.52,15.42-23.52a3.57,3.57,0,0,1,1.71-.51" transform="translate(0 0)"/><path class="cls-3" d="M229.51,54c1.62,0,3.15.43,3.49,1.19v.18c0,1.87-6.64,9.37-6.64,9.37s4.51-3.41,9.37-6.9c2.56-1.79,4.52-2.56,6.05-2.56a3.13,3.13,0,0,1,2.9,1.79,1.14,1.14,0,0,1,.08.51c0,2.81-6.13,10.4-6.13,11.16v.09a.65.65,0,0,0,.42.17c1,0,3.41-1,7.07-3.41,3.92-2.47,6-3.66,6.48-3.66.09,0,.09,0,.09.08-.09.34-13.13,9.8-18,9.8a1.77,1.77,0,0,1-1.37-.43,2.76,2.76,0,0,1-.59-1.87c0-3.41,3.92-8.86,3.92-9.71a.09.09,0,0,0-.09-.09h-.17c-1.62.6-15.34,12.87-15.34,12.87h-.25a6.43,6.43,0,0,1-3.66-1.2.63.63,0,0,1-.26-.59c0-3.15,8.61-15.17,8.61-15.17.68-1.19,2.38-1.62,4-1.62" transform="translate(0 0)"/><path class="cls-3" d="M259.67,52.8c2.56,0,3.84,3.41,3.84,3.41a21.79,21.79,0,0,0-1.62,1.62c-.85.93-12.1,14.57-12.1,15.5,0,.09,0,.09.09.09,1.19-.43,17.29-11.5,17.29-11.5l1.11-.26s-19,16.53-24.37,16.53a1.38,1.38,0,0,1-1-.34,1.35,1.35,0,0,1-.34-1c0-5.29,15.42-23.52,15.42-23.52a3.54,3.54,0,0,1,1.7-.51m7.08-5.71a1.88,1.88,0,0,1-3.75,0,1.88,1.88,0,0,1,3.75,0" transform="translate(0 0)"/><path class="cls-4" d="M263.27,43.29a4.42,4.42,0,1,0,6.25,0,4.42,4.42,0,0,0-6.25,0" transform="translate(0 0)"/><path class="cls-4" d="M217.91,43.29a4.43,4.43,0,1,0,6.26,0,4.44,4.44,0,0,0-6.26,0" transform="translate(0 0)"/><path class="cls-4" d="M269.72,16.75a1.93,1.93,0,0,0-1.91,1.95,1.93,1.93,0,0,0,.57,1.34v0a2,2,0,0,0,1.37.55A22.2,22.2,0,0,1,292.2,43.05a1.94,1.94,0,0,0,.57,1.39,1.94,1.94,0,0,0,2.72,0,1.92,1.92,0,0,0,.58-1.36,26.07,26.07,0,0,0-26.35-26.34" transform="translate(0 0)"/><path class="cls-4" d="M268.33,25.09a1.93,1.93,0,0,0,.06,3.86,15.25,15.25,0,0,1,15.47,15.48,1.88,1.88,0,0,0,.57,1.39,1.9,1.9,0,0,0,1.33.57,1.93,1.93,0,0,0,2-1.91,19.09,19.09,0,0,0-19.39-19.39" transform="translate(0 0)"/><path class="cls-4" d="M264.78,34.25a1.91,1.91,0,0,0-.54,1.38,1.88,1.88,0,0,0,.57,1.32l0,0a1.91,1.91,0,0,0,1.38.54,8.87,8.87,0,0,1,9.08,9.07,2,2,0,0,0,.56,1.42,1.94,1.94,0,0,0,2.7,0,1.9,1.9,0,0,0,.6-1.36,12.75,12.75,0,0,0-13-13,1.94,1.94,0,0,0-1.35.6" transform="translate(0 0)"/><path class="cls-3" d="M263.85,71.29c.06-.23.17-.34.34-.34v-.09a.49.49,0,0,1,.13-.25.61.61,0,0,0,.13-.26c0-.28.34-.67,1-1.15a2,2,0,0,1,1.79-.47,1.6,1.6,0,0,1,1.1,1.54c.06.17,0,.38-.25.64a5.4,5.4,0,0,1-.89.76,6.44,6.44,0,0,1-.73.47,2.44,2.44,0,0,1-.6.51c-.11.17-.49.17-1.15,0a1.14,1.14,0,0,1-.89-1.36" transform="translate(0 0)"/><path class="cls-3" d="M270.07,60.59a5.5,5.5,0,0,1,.47-.68c.08-.08.32,0,.72.13a2.75,2.75,0,0,1,.77,1.79V69q-.09.6.51-.51c1-1.65,1.56-2.62,1.79-2.9,0-.06.07-.17.21-.34s.3-.37.47-.6.34-.47.51-.72a3.81,3.81,0,0,1,.47-.6c.14-.14.21-.18.21-.13l.09-.08q0-.09.21-.3t.3-.21c.06,0,.38-.06,1-.17s1-.12,1.07,0a1.4,1.4,0,0,1,.55.38c.2.2.3.36.3.47A6.31,6.31,0,0,1,280,64l.17.56v4.17l.52-.68c-.12-.17.15-.54.8-1.11a6.25,6.25,0,0,1,1.24-.93,4.52,4.52,0,0,1,2.9-.09,3.44,3.44,0,0,1,1.45,1.7,7.86,7.86,0,0,1,.38,1.67c.14.88.3,1.7.47,2.47s.31,1.18.42,1.23.8-.17,2.05-.85a13.59,13.59,0,0,0,2.21-1.62c.57-.57.94-.82,1.11-.77a17.51,17.51,0,0,1,1.49-1.53c1-1,2.06-2,3.2-3l1.79-1.62c-.06-.11,0-.26.21-.43s.36-.19.47-.08.05.25-.17.25h-.26s-.08,0-.08.09-.06.17,0,.17.08,0,.08,0-.1.06-.3.09-.26.13-.21.3.11.14.17.08l-.34.26v.08c-.06.06-.14.06-.25,0h-.09c.17.17.17.26,0,.26s-.07.06,0,.17,0,.17-.22.17a.48.48,0,0,1-.25.59c-.11,0-.17,0-.17-.08l-.09.08a.86.86,0,0,1,.09.39c0,.14-.06.21-.17.21s-.07.07,0,.21,0,.22-.05.22-.11,0-.17.12-.11.13-.17.13-.17,0-.17.13,0,.13,0,.13,0,.06,0,.17,0,.17,0,.17-.09,0-.09.08c-.17.12-.25.2-.25.26s0,.11-.17.17h-.18c.18,0,.23,0,.18.09a.26.26,0,0,1-.09.17v.08a.27.27,0,0,1-.17-.08.24.24,0,0,0-.17-.09c.23.34.09.77-.43,1.28a1,1,0,0,0-.34.34,1.23,1.23,0,0,1-.25.34L295,71l-.77.77c-.23.23-.37.34-.43.34a8.42,8.42,0,0,0-1.1,1,9.6,9.6,0,0,0-1.28.86c0,.11-.35.28-1,.51a4.33,4.33,0,0,1-3.16-.17c-.28-.17-.43-.27-.43-.3s-.05,0-.16,0c-.86-.8-1.3-1.2-1.33-1.2s-.08-.07-.17-.21-.21-.38-.38-.73a2.44,2.44,0,0,1-.34-1,10.7,10.7,0,0,0-.26-1.11,9.34,9.34,0,0,1-.17-1.61c-.05-.8-.34-.77-.85.08a.31.31,0,0,1-.13.21.37.37,0,0,0-.12.22,3.37,3.37,0,0,0-.51.76q0,.18-.09.09A37.43,37.43,0,0,1,280.81,73c-.4.74-.74,1.05-1,.94a.26.26,0,0,0-.17.09c-.17.28-.64.17-1.4-.35a4.92,4.92,0,0,1-1.41-1.19,6.28,6.28,0,0,1-.3-2,20,20,0,0,1,.3-2.3,14.76,14.76,0,0,0,.26-1.88h.08v-.08c-.06,0-.07-.19,0-.56s0-.55,0-.55-.61.59-1.32,1.79a11.38,11.38,0,0,0-1.07,2,1.33,1.33,0,0,1-.17.38c-.12.2-.18.3-.21.3s0,.07,0,.21,0,.22-.09.22-.09.17-.09.51A2.19,2.19,0,0,1,274,71c-.09.26-.16.38-.22.38s-.25.4-.42,1.2a1.35,1.35,0,0,0-.22.42,2,2,0,0,1-.21.47c-.06.09-.16.24-.3.47s-.27.35-.38.38a2.51,2.51,0,0,0-.43.17.47.47,0,0,1-.51,0c-1.48-.62-2.27-1.39-2.38-2.3l.51-10.82a1.94,1.94,0,0,0,.68-.73M291.46,73.5l.17.09c-.12,0-.17,0-.17-.09m4.85-4.43.17.09a.26.26,0,0,1-.17-.09m1.2-1.53h.08c0,.06-.08.06-.08,0m.68-1h0Zm.08-.43c.12,0,.17,0,.17,0s-.05.05-.17.05-.17,0-.17-.05.06,0,.17,0M301,62.68c-.12.12-.12.17,0,.17s.09,0,.09-.08,0-.09.08-.09.09,0,.09-.17-.09-.11-.26.17m.17.34-.17-.08c0,.06.06.08.17.08" transform="translate(0 0)"/><path class="cls-3" d="M315,65.75a5.77,5.77,0,0,1-.76,1.36,5.79,5.79,0,0,0-.64.73,2.45,2.45,0,0,0-.3.47,3.81,3.81,0,0,1-.43.76c-.22.34-.37.51-.42.51a.08.08,0,0,0-.09.09,3.73,3.73,0,0,1-.6.77,1.41,1.41,0,0,1-.51.85,1.38,1.38,0,0,0-.51.85c-.06.12-.27.24-.64.38a2.8,2.8,0,0,1-1.06.22,2.48,2.48,0,0,1-1.92-1.2,7.56,7.56,0,0,1-1.24-2.3,8.77,8.77,0,0,1-.08-1.7,14.86,14.86,0,0,1,.08-2c.06-.34-.05-.43-.34-.26a2,2,0,0,0-.93.86v.17a.55.55,0,0,0-.39.25c-.14.17-.29.36-.47.56l-.34.38c-.45.57-.78,1-1,1.19s-.31.34-.34.34,0,0,0,.09l-1.11,1.19c.12.06-.14.4-.76,1-.29.23-.43.37-.43.43s0,.09,0,.09a.68.68,0,0,0-.22.12l-.38.3-.3.26-.42.17a4.09,4.09,0,0,1-1.75-1.41,2.46,2.46,0,0,1-.47-2.09A13.15,13.15,0,0,1,298,65.41l.68-.85a.58.58,0,0,1,.17-.3A.67.67,0,0,0,299,64a5,5,0,0,1,.81-.85,8.57,8.57,0,0,1,1.23-1q3.24-2.31,5.8-1.54a.69.69,0,0,1,.47.39.47.47,0,0,1-.13.55.38.38,0,0,1-.6.09,1,1,0,0,0-.51-.26,5.46,5.46,0,0,0-2.47,1.19A6.15,6.15,0,0,0,302,64.05a6.45,6.45,0,0,1-1.11,1.27c-.05.06-.2.26-.42.6a2.19,2.19,0,0,0-.34.6L299.29,68a7.88,7.88,0,0,1-.76,2q-.43.76,1.11-.69l5.45-5.7c.39-.4.59-.69.59-.86a.37.37,0,0,1,.26-.47,1.75,1.75,0,0,1,.77-.08,1,1,0,0,1,.59.21.22.22,0,0,1,.17.09,1.14,1.14,0,0,1,.51,1,35.74,35.74,0,0,1,.35,4.77,9.68,9.68,0,0,0,.08,1.62c.28-.28,1.14-1.22,2.56-2.81s2.35-2.59,2.81-3A6.15,6.15,0,0,0,315,62.9c.46-.54.77-.9.94-1.07l.68-.77.34-.42H317c.05.17.17.2.34.08,0,0,0-.1-.13-.12a.43.43,0,0,1-.17-.09s0-.09.08-.17.18-.17.26-.26.14-.11.17-.08,0,0,0,0l.08.17c.12.17.15.26.09.26v.17c-.06.28-.14.4-.26.34s-.08.06-.08.17h.08a.59.59,0,0,0-.12.17,3.23,3.23,0,0,1-.22.34,1.93,1.93,0,0,1-.3.38c-.08.09-.15.1-.21.05v.08c0,.17,0,.26-.08.26a1.3,1.3,0,0,1-.26.42l-.09.51c-.05.12-.14.09-.25-.08l-.09.17h.09c0,.06,0,.09.08.09s.09,0,.09.08a.08.08,0,0,1-.09.09c-.05,0-.08,0-.08.08s-.06.09-.17.09l-.26.51-.08.25c-.12,0-.17,0-.17,0a.23.23,0,0,1,.13.26c0,.11-.13.37-.3.77,0,0,0,.08-.09.08m1.62-3.92h-.17a.1.1,0,0,0,.17,0m.85-1.36h-.17a.11.11,0,0,0,.17,0m.34-.51c0,.11,0,.17-.08.17Z" transform="translate(0 0)"/><path class="cls-3" d="M215.88,77.85a10.38,10.38,0,0,0-2.9-.26c-1.71,0-3.32.17-3.32.17l-43.51.91q5-6.63,9.9-14.24a30.23,30.23,0,0,0,2.17-3.37,7.14,7.14,0,0,0,.93-3.49c0-3.58-2.89-6-4.17-6.9a3.67,3.67,0,0,0-2-.6,3.73,3.73,0,0,0-2,.6,24.38,24.38,0,0,1-4.26,2.64c-1,.51-5.11,3.75-9.37,7-.77-2.3-2.13-5.11-4.09-6.39l-.09-.09A6,6,0,0,0,150.1,53a9.24,9.24,0,0,0-2.47.34c-6,1.7-10,10.82-10,14.74v.17a4.25,4.25,0,0,0,4.34,4.6h.52c1.87-.34,8.69-5.54,12.95-9l2-1.62c.17.6.34,1.19.51,2l.43-.17s-.17-.85-.51-2.13a102.85,102.85,0,0,1,10.22-7.5,7.69,7.69,0,0,1,3.41-1.19,1,1,0,0,1,1,.51v.09c0,.93-5.45,7.15-13.12,17.89-1.62,2.21-3.49,4.77-5.54,7.33l-2.38.08h-1.28c-3.24,0-9.8.26-21.56,1.28-18.49,1.7-30.84,2.22-48.39,9.54S53.22,110,53.22,121.3c0,8.64,3.88,14.81,9.65,17.9h0l.45.22a19.36,19.36,0,0,0,5.26,1.74,18.11,18.11,0,0,0,2.74.25c.93.09,1.92.15,3,.15.35,0,.71,0,1.06,0a37,37,0,0,0,9.93-1.68h0c2.49-.69,4.66-1.47,6.18-2C106.74,132.3,136,118.33,165.12,80c9.75-.16,21.82-.32,26-.49h1.27c6.4,0,7.59,1.28,9.38,2a30.3,30.3,0,0,0,8.52,1,14.43,14.43,0,0,0,5.28-.77c1.45-.68,2-1.45,2-2.22s-.69-1.36-1.79-1.7m-69.44-9.63h-.09a.75.75,0,0,1-.34-.68c0-1.36,1.62-4.52,4.17-7.33a5.1,5.1,0,0,1,3.58-1.87,4.18,4.18,0,0,1,1,.17,4.11,4.11,0,0,1,2.13,2.21c-4.86,3.84-9.72,7.5-10.48,7.5M58.25,122.75A24.47,24.47,0,0,1,60,113.21c3.15-7.07,13.8-19.17,33.74-25.65,18.4-6,52.48-7.15,57.6-7.32H153c-7.67,9.62-17,20.27-22.16,25.81C124,113.38,99.06,131.7,88.5,136.38a30.83,30.83,0,0,1-12.87,2.82,21.52,21.52,0,0,1-12.69-3.67c-3.16-2.38-4.69-7.5-4.69-12.78" transform="translate(0 0)"/></g></g></g></svg>